<mxfile host="app.diagrams.net" agent="Mozilla/5.0 (X11; Linux x86_64; rv:141.0) Gecko/20100101 Firefox/141.0" version="28.1.0">
  <diagram name="PÃ¡gina-1" id="yNtrUq_g8D0pvzZwIxcy">
    <mxGraphModel dx="2237" dy="760" grid="1" gridSize="10" guides="1" tooltips="1" connect="1" arrows="1" fold="1" page="1" pageScale="1" pageWidth="827" pageHeight="1169" math="0" shadow="0">
      <root>
        <mxCell id="0" />
        <mxCell id="1" parent="0" />
        <mxCell id="rLZH8Nn4CCLPOPYhZAGx-68" style="edgeStyle=orthogonalEdgeStyle;rounded=0;orthogonalLoop=1;jettySize=auto;html=1;entryX=0.5;entryY=0;entryDx=0;entryDy=0;" edge="1" parent="1" source="rLZH8Nn4CCLPOPYhZAGx-3" target="rLZH8Nn4CCLPOPYhZAGx-65">
          <mxGeometry relative="1" as="geometry" />
        </mxCell>
        <mxCell id="rLZH8Nn4CCLPOPYhZAGx-3" value="Docente" style="shape=umlActor;verticalLabelPosition=bottom;verticalAlign=top;html=1;outlineConnect=0;" vertex="1" parent="1">
          <mxGeometry x="-170" y="120" width="30" height="60" as="geometry" />
        </mxCell>
        <mxCell id="rLZH8Nn4CCLPOPYhZAGx-69" style="edgeStyle=orthogonalEdgeStyle;rounded=0;orthogonalLoop=1;jettySize=auto;html=1;" edge="1" parent="1" source="rLZH8Nn4CCLPOPYhZAGx-4" target="rLZH8Nn4CCLPOPYhZAGx-66">
          <mxGeometry relative="1" as="geometry" />
        </mxCell>
        <mxCell id="rLZH8Nn4CCLPOPYhZAGx-4" value="Administrador" style="shape=umlActor;verticalLabelPosition=bottom;verticalAlign=top;html=1;outlineConnect=0;" vertex="1" parent="1">
          <mxGeometry x="5" y="120" width="30" height="60" as="geometry" />
        </mxCell>
        <mxCell id="rLZH8Nn4CCLPOPYhZAGx-7" value="&lt;div&gt;&lt;b&gt;Sistema de gestion universitaria&lt;/b&gt;&lt;/div&gt;&lt;div&gt;&lt;b&gt;(Educa Blackboard)&lt;/b&gt;&lt;/div&gt;" style="rounded=1;whiteSpace=wrap;html=1;" vertex="1" parent="1">
          <mxGeometry x="-230" y="550" width="150" height="50" as="geometry" />
        </mxCell>
        <mxCell id="rLZH8Nn4CCLPOPYhZAGx-11" value="&lt;div&gt;Diagrama de contexto&lt;/div&gt;" style="text;html=1;align=center;verticalAlign=middle;whiteSpace=wrap;rounded=0;perimeterSpacing=0;strokeWidth=10;fontSize=14;textShadow=0;fontStyle=1" vertex="1" parent="1">
          <mxGeometry x="-230" y="80" width="150" height="30" as="geometry" />
        </mxCell>
        <mxCell id="rLZH8Nn4CCLPOPYhZAGx-12" value="&lt;b&gt;Docente&lt;/b&gt;" style="shape=umlActor;verticalLabelPosition=bottom;verticalAlign=top;html=1;outlineConnect=0;" vertex="1" parent="1">
          <mxGeometry x="604" y="130" width="30" height="60" as="geometry" />
        </mxCell>
        <mxCell id="rLZH8Nn4CCLPOPYhZAGx-13" value="&lt;b&gt;Administrador&lt;/b&gt;" style="shape=umlActor;verticalLabelPosition=bottom;verticalAlign=top;html=1;outlineConnect=0;" vertex="1" parent="1">
          <mxGeometry x="810" y="130" width="30" height="60" as="geometry" />
        </mxCell>
        <mxCell id="rLZH8Nn4CCLPOPYhZAGx-88" style="edgeStyle=orthogonalEdgeStyle;rounded=0;orthogonalLoop=1;jettySize=auto;html=1;exitX=0.5;exitY=1;exitDx=0;exitDy=0;entryX=0.25;entryY=0;entryDx=0;entryDy=0;" edge="1" parent="1" source="rLZH8Nn4CCLPOPYhZAGx-21" target="rLZH8Nn4CCLPOPYhZAGx-39">
          <mxGeometry relative="1" as="geometry">
            <Array as="points">
              <mxPoint x="391" y="680" />
              <mxPoint x="569" y="680" />
            </Array>
          </mxGeometry>
        </mxCell>
        <mxCell id="rLZH8Nn4CCLPOPYhZAGx-21" value="&lt;div&gt;&lt;span style=&quot;font-weight: normal;&quot;&gt;&amp;lt;&amp;lt;Flutter&amp;gt;&amp;gt;&lt;/span&gt;&lt;/div&gt;&lt;div&gt;Aplicacion Movil (Integracion 4)&lt;/div&gt;&lt;div&gt;&lt;span style=&quot;font-weight: normal;&quot;&gt;App para estudiantes y docentes&lt;/span&gt;&lt;/div&gt;" style="swimlane;whiteSpace=wrap;html=1;startSize=50;" vertex="1" parent="1">
          <mxGeometry x="291.19" y="380" width="200" height="90" as="geometry" />
        </mxCell>
        <mxCell id="rLZH8Nn4CCLPOPYhZAGx-22" value="&lt;b&gt;Tecnologia: Flutter&lt;/b&gt;" style="text;html=1;align=center;verticalAlign=middle;resizable=0;points=[];autosize=1;strokeColor=none;fillColor=none;" vertex="1" parent="rLZH8Nn4CCLPOPYhZAGx-21">
          <mxGeometry x="-5" y="58" width="130" height="30" as="geometry" />
        </mxCell>
        <mxCell id="rLZH8Nn4CCLPOPYhZAGx-83" style="edgeStyle=orthogonalEdgeStyle;rounded=0;orthogonalLoop=1;jettySize=auto;html=1;exitX=0.25;exitY=1;exitDx=0;exitDy=0;entryX=0.5;entryY=0;entryDx=0;entryDy=0;" edge="1" parent="1" source="rLZH8Nn4CCLPOPYhZAGx-23" target="rLZH8Nn4CCLPOPYhZAGx-75">
          <mxGeometry relative="1" as="geometry" />
        </mxCell>
        <mxCell id="rLZH8Nn4CCLPOPYhZAGx-84" style="edgeStyle=orthogonalEdgeStyle;rounded=0;orthogonalLoop=1;jettySize=auto;html=1;exitX=0.75;exitY=1;exitDx=0;exitDy=0;entryX=0.5;entryY=0;entryDx=0;entryDy=0;" edge="1" parent="1" source="rLZH8Nn4CCLPOPYhZAGx-23" target="rLZH8Nn4CCLPOPYhZAGx-81">
          <mxGeometry relative="1" as="geometry" />
        </mxCell>
        <mxCell id="rLZH8Nn4CCLPOPYhZAGx-23" value="&lt;div&gt;&lt;span style=&quot;font-weight: normal;&quot;&gt;&amp;lt;&amp;lt;Next.js, TailwindCSS, Vercel&amp;gt;&amp;gt;&lt;/span&gt;&lt;/div&gt;&lt;div&gt;Pagina Web (Integracion 2)&lt;/div&gt;&lt;div&gt;&lt;span style=&quot;font-weight: normal;&quot;&gt;Portal para administradores y docentes&lt;/span&gt;&lt;/div&gt;" style="swimlane;whiteSpace=wrap;html=1;startSize=60;" vertex="1" parent="1">
          <mxGeometry x="659" y="307.5" width="200" height="110" as="geometry" />
        </mxCell>
        <mxCell id="rLZH8Nn4CCLPOPYhZAGx-24" value="&lt;div&gt;&lt;b&gt;Tecnologia: Next.js + TailwindCSS&lt;/b&gt;&lt;/div&gt;&lt;div align=&quot;left&quot;&gt;&lt;b&gt;Hosting: Vercel&lt;/b&gt;&lt;/div&gt;" style="text;html=1;align=center;verticalAlign=middle;resizable=0;points=[];autosize=1;strokeColor=none;fillColor=none;" vertex="1" parent="rLZH8Nn4CCLPOPYhZAGx-23">
          <mxGeometry x="-10" y="60" width="220" height="40" as="geometry" />
        </mxCell>
        <mxCell id="rLZH8Nn4CCLPOPYhZAGx-26" value="&lt;b&gt;Estudiante&lt;/b&gt;" style="shape=umlActor;verticalLabelPosition=bottom;verticalAlign=top;html=1;outlineConnect=0;" vertex="1" parent="1">
          <mxGeometry x="400" y="130" width="30" height="60" as="geometry" />
        </mxCell>
        <mxCell id="rLZH8Nn4CCLPOPYhZAGx-27" value="" style="endArrow=classic;html=1;rounded=0;entryX=0.5;entryY=0;entryDx=0;entryDy=0;" edge="1" parent="1" source="rLZH8Nn4CCLPOPYhZAGx-26" target="rLZH8Nn4CCLPOPYhZAGx-21">
          <mxGeometry relative="1" as="geometry">
            <mxPoint x="390" y="390" as="sourcePoint" />
            <mxPoint x="490" y="390" as="targetPoint" />
          </mxGeometry>
        </mxCell>
        <mxCell id="rLZH8Nn4CCLPOPYhZAGx-28" value="Utiliza" style="edgeLabel;resizable=0;html=1;;align=center;verticalAlign=middle;" connectable="0" vertex="1" parent="rLZH8Nn4CCLPOPYhZAGx-27">
          <mxGeometry relative="1" as="geometry">
            <mxPoint x="-1" y="-35" as="offset" />
          </mxGeometry>
        </mxCell>
        <mxCell id="rLZH8Nn4CCLPOPYhZAGx-29" value="" style="endArrow=classic;html=1;rounded=0;exitX=0;exitY=1;exitDx=0;exitDy=0;exitPerimeter=0;entryX=0.75;entryY=0;entryDx=0;entryDy=0;" edge="1" parent="1" source="rLZH8Nn4CCLPOPYhZAGx-12" target="rLZH8Nn4CCLPOPYhZAGx-21">
          <mxGeometry relative="1" as="geometry">
            <mxPoint x="390" y="390" as="sourcePoint" />
            <mxPoint x="490" y="390" as="targetPoint" />
            <Array as="points" />
          </mxGeometry>
        </mxCell>
        <mxCell id="rLZH8Nn4CCLPOPYhZAGx-30" value="Utiliza" style="edgeLabel;resizable=0;html=1;;align=center;verticalAlign=middle;" connectable="0" vertex="1" parent="rLZH8Nn4CCLPOPYhZAGx-29">
          <mxGeometry relative="1" as="geometry">
            <mxPoint x="-9" y="25" as="offset" />
          </mxGeometry>
        </mxCell>
        <mxCell id="rLZH8Nn4CCLPOPYhZAGx-31" value="" style="endArrow=classic;html=1;rounded=0;exitX=1;exitY=1;exitDx=0;exitDy=0;exitPerimeter=0;entryX=0.25;entryY=0;entryDx=0;entryDy=0;" edge="1" parent="1" source="rLZH8Nn4CCLPOPYhZAGx-12" target="rLZH8Nn4CCLPOPYhZAGx-23">
          <mxGeometry relative="1" as="geometry">
            <mxPoint x="390" y="390" as="sourcePoint" />
            <mxPoint x="490" y="390" as="targetPoint" />
            <Array as="points" />
          </mxGeometry>
        </mxCell>
        <mxCell id="rLZH8Nn4CCLPOPYhZAGx-32" value="Utiliza" style="edgeLabel;resizable=0;html=1;;align=center;verticalAlign=middle;" connectable="0" vertex="1" parent="rLZH8Nn4CCLPOPYhZAGx-31">
          <mxGeometry relative="1" as="geometry">
            <mxPoint x="-8" y="-8" as="offset" />
          </mxGeometry>
        </mxCell>
        <mxCell id="rLZH8Nn4CCLPOPYhZAGx-33" value="" style="endArrow=classic;html=1;rounded=0;exitX=1;exitY=1;exitDx=0;exitDy=0;exitPerimeter=0;entryX=0.5;entryY=0;entryDx=0;entryDy=0;" edge="1" parent="1" source="rLZH8Nn4CCLPOPYhZAGx-13" target="rLZH8Nn4CCLPOPYhZAGx-23">
          <mxGeometry relative="1" as="geometry">
            <mxPoint x="390" y="390" as="sourcePoint" />
            <mxPoint x="490" y="390" as="targetPoint" />
          </mxGeometry>
        </mxCell>
        <mxCell id="rLZH8Nn4CCLPOPYhZAGx-34" value="Utiliza" style="edgeLabel;resizable=0;html=1;;align=center;verticalAlign=middle;" connectable="0" vertex="1" parent="rLZH8Nn4CCLPOPYhZAGx-33">
          <mxGeometry relative="1" as="geometry" />
        </mxCell>
        <mxCell id="rLZH8Nn4CCLPOPYhZAGx-39" value="&lt;div&gt;&lt;span style=&quot;font-weight: normal;&quot;&gt;&amp;lt;&amp;lt;FastApi&amp;gt;&amp;gt;&lt;/span&gt;&lt;/div&gt;&lt;div&gt;ApiRest&lt;/div&gt;&lt;div&gt;&lt;span style=&quot;font-weight: normal;&quot;&gt;Contendra la logica del proyecto (API)&lt;/span&gt;&lt;/div&gt;" style="swimlane;whiteSpace=wrap;html=1;startSize=66;" vertex="1" parent="1">
          <mxGeometry x="519" y="740" width="200" height="105.51" as="geometry" />
        </mxCell>
        <mxCell id="rLZH8Nn4CCLPOPYhZAGx-40" value="&lt;div&gt;&lt;b&gt;Tecnologia: FastApi (Python)&lt;/b&gt;&lt;/div&gt;&lt;div align=&quot;left&quot;&gt;&lt;b&gt;Hosting: Railway&lt;/b&gt;&lt;/div&gt;" style="text;html=1;align=center;verticalAlign=middle;resizable=0;points=[];autosize=1;strokeColor=none;fillColor=none;" vertex="1" parent="rLZH8Nn4CCLPOPYhZAGx-39">
          <mxGeometry x="-1.42" y="65.51" width="190" height="40" as="geometry" />
        </mxCell>
        <mxCell id="rLZH8Nn4CCLPOPYhZAGx-46" value="&lt;div align=&quot;left&quot;&gt;&lt;b&gt;&lt;br&gt;&lt;/b&gt;&lt;/div&gt;&lt;div align=&quot;left&quot;&gt;&lt;b&gt;&lt;br&gt;&lt;/b&gt;&lt;/div&gt;&lt;div align=&quot;left&quot;&gt;&lt;b&gt;Tecnologia: PostgreSQL&lt;/b&gt;&lt;/div&gt;&lt;div align=&quot;left&quot;&gt;&lt;b&gt;Hosting: Railway&lt;/b&gt;&lt;/div&gt;" style="strokeWidth=2;html=1;shape=mxgraph.flowchart.database;whiteSpace=wrap;" vertex="1" parent="1">
          <mxGeometry x="532.58" y="945.51" width="176" height="190" as="geometry" />
        </mxCell>
        <mxCell id="rLZH8Nn4CCLPOPYhZAGx-47" value="&lt;div&gt;&lt;span style=&quot;font-weight: normal;&quot;&gt;&amp;lt;&amp;lt;PostgreSQL&amp;gt;&amp;gt;&lt;/span&gt;&lt;/div&gt;&lt;div&gt;&lt;b&gt;Base de datos&lt;/b&gt;&lt;/div&gt;&lt;div&gt;Almacena la informacion&lt;/div&gt;" style="text;html=1;align=center;verticalAlign=middle;resizable=0;points=[];autosize=1;strokeColor=none;fillColor=none;" vertex="1" parent="1">
          <mxGeometry x="545.58" y="945.51" width="150" height="60" as="geometry" />
        </mxCell>
        <mxCell id="rLZH8Nn4CCLPOPYhZAGx-50" value="&lt;div&gt;Diagrama de contenedores&lt;/div&gt;" style="text;html=1;align=center;verticalAlign=middle;whiteSpace=wrap;rounded=0;perimeterSpacing=0;strokeWidth=10;fontSize=14;textShadow=0;fontStyle=1" vertex="1" parent="1">
          <mxGeometry x="525.58" y="80" width="190" height="30" as="geometry" />
        </mxCell>
        <mxCell id="rLZH8Nn4CCLPOPYhZAGx-51" value="" style="endArrow=classic;startArrow=classic;html=1;rounded=0;entryX=0.5;entryY=1;entryDx=0;entryDy=0;exitX=0.5;exitY=0;exitDx=0;exitDy=0;exitPerimeter=0;" edge="1" parent="1" source="rLZH8Nn4CCLPOPYhZAGx-46" target="rLZH8Nn4CCLPOPYhZAGx-39">
          <mxGeometry width="50" height="50" relative="1" as="geometry">
            <mxPoint x="608.58" y="815.51" as="sourcePoint" />
            <mxPoint x="478.58" y="785.51" as="targetPoint" />
            <Array as="points" />
          </mxGeometry>
        </mxCell>
        <mxCell id="rLZH8Nn4CCLPOPYhZAGx-52" value="&lt;b&gt;Lee y escribe datos&lt;/b&gt;" style="text;html=1;align=center;verticalAlign=middle;resizable=0;points=[];autosize=1;strokeColor=none;fillColor=none;" vertex="1" parent="1">
          <mxGeometry x="620" y="880" width="130" height="30" as="geometry" />
        </mxCell>
        <mxCell id="rLZH8Nn4CCLPOPYhZAGx-67" style="edgeStyle=orthogonalEdgeStyle;rounded=0;orthogonalLoop=1;jettySize=auto;html=1;entryX=0.5;entryY=0;entryDx=0;entryDy=0;" edge="1" parent="1" source="rLZH8Nn4CCLPOPYhZAGx-57" target="rLZH8Nn4CCLPOPYhZAGx-64">
          <mxGeometry relative="1" as="geometry" />
        </mxCell>
        <mxCell id="rLZH8Nn4CCLPOPYhZAGx-57" value="Estudiante" style="shape=umlActor;verticalLabelPosition=bottom;verticalAlign=top;html=1;outlineConnect=0;" vertex="1" parent="1">
          <mxGeometry x="-335" y="120" width="30" height="60" as="geometry" />
        </mxCell>
        <mxCell id="rLZH8Nn4CCLPOPYhZAGx-70" style="edgeStyle=orthogonalEdgeStyle;rounded=0;orthogonalLoop=1;jettySize=auto;html=1;entryX=0.5;entryY=0;entryDx=0;entryDy=0;" edge="1" parent="1" source="rLZH8Nn4CCLPOPYhZAGx-64" target="rLZH8Nn4CCLPOPYhZAGx-7">
          <mxGeometry relative="1" as="geometry">
            <Array as="points">
              <mxPoint x="-320" y="500" />
              <mxPoint x="-155" y="500" />
            </Array>
          </mxGeometry>
        </mxCell>
        <mxCell id="rLZH8Nn4CCLPOPYhZAGx-64" value="&lt;div align=&quot;left&quot;&gt;&lt;b&gt;- Consulta de horarios&amp;nbsp;&lt;/b&gt;&lt;/div&gt;&lt;div align=&quot;left&quot;&gt;&lt;b&gt;- Visualizacion de calificaciones&lt;/b&gt;&lt;/div&gt;&lt;div align=&quot;left&quot;&gt;&lt;b&gt;- Recepcion de notificaciones&lt;/b&gt;&lt;/div&gt;&lt;div align=&quot;left&quot;&gt;&lt;b&gt;- Visualizacion de noticias y eventos.&amp;nbsp;&lt;/b&gt;&lt;/div&gt;&#x9;" style="rounded=1;whiteSpace=wrap;html=1;align=left;" vertex="1" parent="1">
          <mxGeometry x="-395" y="300" width="150" height="120" as="geometry" />
        </mxCell>
        <mxCell id="rLZH8Nn4CCLPOPYhZAGx-71" style="edgeStyle=orthogonalEdgeStyle;rounded=0;orthogonalLoop=1;jettySize=auto;html=1;" edge="1" parent="1" source="rLZH8Nn4CCLPOPYhZAGx-65">
          <mxGeometry relative="1" as="geometry">
            <mxPoint x="-155" y="550" as="targetPoint" />
          </mxGeometry>
        </mxCell>
        <mxCell id="rLZH8Nn4CCLPOPYhZAGx-65" value="&lt;div align=&quot;left&quot;&gt;&lt;b&gt;- Consulta y modificacion de horarios.&lt;/b&gt;&lt;/div&gt;&lt;div align=&quot;left&quot;&gt;&lt;b&gt;- Registro de asistencia&lt;/b&gt;&lt;/div&gt;&lt;div align=&quot;left&quot;&gt;&lt;b&gt;- Publicacion de tareas o evaluaciones.&lt;/b&gt;&lt;/div&gt;" style="rounded=1;whiteSpace=wrap;html=1;align=left;" vertex="1" parent="1">
          <mxGeometry x="-227.5" y="300" width="145" height="130" as="geometry" />
        </mxCell>
        <mxCell id="rLZH8Nn4CCLPOPYhZAGx-72" style="edgeStyle=orthogonalEdgeStyle;rounded=0;orthogonalLoop=1;jettySize=auto;html=1;entryX=0.5;entryY=0;entryDx=0;entryDy=0;" edge="1" parent="1" source="rLZH8Nn4CCLPOPYhZAGx-66" target="rLZH8Nn4CCLPOPYhZAGx-7">
          <mxGeometry relative="1" as="geometry">
            <Array as="points">
              <mxPoint x="20" y="500" />
              <mxPoint x="-155" y="500" />
            </Array>
          </mxGeometry>
        </mxCell>
        <mxCell id="rLZH8Nn4CCLPOPYhZAGx-66" value="&lt;div align=&quot;left&quot;&gt;&lt;b&gt;- Gestion de usuarios&lt;/b&gt;&lt;/div&gt;&lt;div align=&quot;left&quot;&gt;&lt;b&gt;- Gestion horarios y cursos&lt;/b&gt;&lt;/div&gt;&lt;div align=&quot;left&quot;&gt;&lt;b&gt;- Publicacion de noticias y eventos&lt;/b&gt;&lt;/div&gt;&lt;div align=&quot;left&quot;&gt;&lt;b&gt;- Revision asistencia y rendimiento academico&lt;/b&gt;&lt;/div&gt;" style="rounded=1;whiteSpace=wrap;html=1;align=left;" vertex="1" parent="1">
          <mxGeometry x="-50" y="300" width="140" height="130" as="geometry" />
        </mxCell>
        <mxCell id="rLZH8Nn4CCLPOPYhZAGx-75" value="&lt;div&gt;&lt;span style=&quot;font-weight: normal;&quot;&gt;&amp;lt;&amp;lt;Next.js + TailwindCSS&amp;gt;&amp;gt;&lt;/span&gt;&lt;/div&gt;&lt;div&gt;Frontend&lt;/div&gt;&lt;div&gt;&lt;span style=&quot;font-weight: normal;&quot;&gt;Interfaz visual web&lt;/span&gt;&lt;/div&gt;" style="swimlane;whiteSpace=wrap;html=1;startSize=50;" vertex="1" parent="1">
          <mxGeometry x="510" y="487.5" width="215" height="110" as="geometry" />
        </mxCell>
        <mxCell id="rLZH8Nn4CCLPOPYhZAGx-77" value="&lt;div align=&quot;left&quot;&gt;&lt;b&gt;- Crear interfaces con Next.js&lt;/b&gt;&lt;/div&gt;&lt;div align=&quot;left&quot;&gt;&lt;b&gt;- Implementar diseÃ±o responsivo&amp;nbsp;&lt;/b&gt;&lt;/div&gt;&lt;div align=&quot;left&quot;&gt;&lt;b&gt;con TailwindCSS&amp;nbsp;&lt;/b&gt;&lt;/div&gt;" style="text;html=1;align=left;verticalAlign=middle;resizable=0;points=[];autosize=1;strokeColor=none;fillColor=none;" vertex="1" parent="rLZH8Nn4CCLPOPYhZAGx-75">
          <mxGeometry y="50" width="210" height="60" as="geometry" />
        </mxCell>
        <mxCell id="rLZH8Nn4CCLPOPYhZAGx-86" style="edgeStyle=orthogonalEdgeStyle;rounded=0;orthogonalLoop=1;jettySize=auto;html=1;entryX=0.75;entryY=0;entryDx=0;entryDy=0;" edge="1" parent="1" source="rLZH8Nn4CCLPOPYhZAGx-81" target="rLZH8Nn4CCLPOPYhZAGx-39">
          <mxGeometry relative="1" as="geometry">
            <Array as="points">
              <mxPoint x="920" y="680" />
              <mxPoint x="669" y="680" />
            </Array>
          </mxGeometry>
        </mxCell>
        <mxCell id="rLZH8Nn4CCLPOPYhZAGx-81" value="&lt;div&gt;&lt;span style=&quot;font-weight: normal;&quot;&gt;&amp;lt;&amp;lt;Por definir&amp;gt;&amp;gt;&lt;/span&gt;&lt;/div&gt;&lt;div&gt;Backend&lt;/div&gt;&lt;div&gt;&lt;span style=&quot;font-weight: normal;&quot;&gt;Contiene la logica del proyecto (Web)&lt;/span&gt;&lt;/div&gt;" style="swimlane;whiteSpace=wrap;html=1;startSize=50;" vertex="1" parent="1">
          <mxGeometry x="810" y="485" width="220" height="115" as="geometry" />
        </mxCell>
        <mxCell id="rLZH8Nn4CCLPOPYhZAGx-82" value="&lt;div align=&quot;left&quot;&gt;&lt;b&gt;- Implementar funciones&amp;nbsp;&lt;/b&gt;&lt;/div&gt;&lt;div align=&quot;left&quot;&gt;&lt;b&gt;administrativas&lt;/b&gt;&lt;/div&gt;&lt;div align=&quot;left&quot;&gt;&lt;b&gt;- Conexion a la API (FastAPI) para&amp;nbsp;&lt;/b&gt;&lt;/div&gt;&lt;div align=&quot;left&quot;&gt;&lt;b&gt;CRUD&amp;nbsp;&lt;/b&gt;&lt;/div&gt;" style="text;html=1;align=left;verticalAlign=middle;resizable=0;points=[];autosize=1;strokeColor=none;fillColor=none;" vertex="1" parent="rLZH8Nn4CCLPOPYhZAGx-81">
          <mxGeometry y="45" width="220" height="70" as="geometry" />
        </mxCell>
        <mxCell id="rLZH8Nn4CCLPOPYhZAGx-87" value="&lt;div&gt;&lt;b&gt;Realiza Peticiones&amp;nbsp;&lt;/b&gt;&lt;/div&gt;&lt;div&gt;&lt;b&gt;HTTPS/JSON&lt;/b&gt;&lt;/div&gt;" style="text;html=1;align=center;verticalAlign=middle;resizable=0;points=[];autosize=1;strokeColor=none;fillColor=none;" vertex="1" parent="1">
          <mxGeometry x="920" y="653" width="130" height="40" as="geometry" />
        </mxCell>
        <mxCell id="rLZH8Nn4CCLPOPYhZAGx-89" value="&lt;div&gt;&lt;b&gt;Realiza Peticiones&amp;nbsp;&lt;/b&gt;&lt;/div&gt;&lt;div&gt;&lt;b&gt;HTTPS/JSON&lt;/b&gt;&lt;/div&gt;" style="text;html=1;align=center;verticalAlign=middle;resizable=0;points=[];autosize=1;strokeColor=none;fillColor=none;" vertex="1" parent="1">
          <mxGeometry x="265" y="643" width="130" height="40" as="geometry" />
        </mxCell>
        <mxCell id="rLZH8Nn4CCLPOPYhZAGx-91" value="DIAGRAMA ARQUITECTURA DE SOFTWARE" style="text;html=1;align=center;verticalAlign=middle;whiteSpace=wrap;rounded=0;fontSize=17;fontStyle=1" vertex="1" parent="1">
          <mxGeometry x="114" y="20" width="300" height="30" as="geometry" />
        </mxCell>
      </root>
    </mxGraphModel>
  </diagram>
</mxfile>
